# xmcd CD database file
#
# Track frame offsets:
#	150
#	17686
#	37552
#	51048
#	76292
#	90220
#	121263
#	136897
#	164370
#	187263
#
# Disc length: 2763 seconds
#
# Revision: 0
# Processed by: cddbd v1.5PL3 Copyright (c) Steve Scherf et al.
# Submitted via: CDex 1.51
#
DISCID=6d0ac90a
DTITLE=Bad Mojo - Easy Chair
DYEAR=2004
DGENRE=Country
TTITLE0=D-Minor
TTITLE1=Bongos for Rosie
TTITLE2=If You Say That You're Leavin'
TTITLE3=For Pia
TTITLE4=Listen to the Wind
TTITLE5=The River
TTITLE6=Awake
TTITLE7=High Expectations
TTITLE8=Little Green Men
TTITLE9=Easy Chair
EXTD=YEAR: 2004
EXTT0=
EXTT1=
EXTT2=
EXTT3=
EXTT4=
EXTT5=
EXTT6=
EXTT7=
EXTT8=
EXTT9=
PLAYORDER=
